<?xml version="1.0" standalone="no"?>
<svg xmlns="http://www.w3.org/2000/svg" viewBox="0 0 430.437542997543 223.277542997543" width="430.437542997543" height="223.277542997543"><rect fill="none" stroke="#ffb94c" stroke-width="4" width="426.437542997543" height="219.277542997543" x="2" y="2"></rect><g fill="#ffb94c" color="#ffb94c" transform="translate(219.161 29.938) scale(6.0456752)"><svg width="32.962" height="27.028" x="0.0" y="0.0" viewBox="0 0 32.962 27.028"><g><path fill="currentColor" d="M12.924,4.688c0.026,0.026,0.052,0.052,0.078,0.078C12.976,4.741,12.95,4.715,12.924,4.688L12.924,4.688z"></path><path fill="currentColor" d="M12.56,2.89C12.69,2.837,12.456,2.916,12.56,2.89L12.56,2.89L12.56,2.89z"></path><path fill="currentColor" d="M31.539,18.14c0.364,0.209-1.69,2.034-1.872,2.19c-0.832,0.782-1.482,1.512-2.781,1.173   c0.208-1.694,0.39-3.024-0.599-4.483c-0.364-0.548-0.313-1.147-0.676-1.721c-0.521-0.783-0.91-1.564-1.378-2.373   c-0.65-1.147-2.21-2.294-2.548-3.519c-0.39-1.356-1.273-2.582-1.82-3.885c0.78-0.938,1.742-1.382,0.806-2.32   c-0.44-0.443-0.701-0.938-1.247-1.303c-0.469-0.339-1.326-0.365-1.872-0.678c-0.78-0.443-2.444-0.573-3.042,0.313   c-0.598,0.912-1.664,0.417-2.313,1.068c0.234-0.104,0-0.026,0.312-0.104c0,0,0.26,0.183,0.208,0.392   c-0.104-0.053-0.364,0.052-0.468,0.078l-0.156-0.235c0,0.756,0.39,1.539,0.858,2.112c0.442-0.235,1.17,0.104,1.56,0.339   c0.572,0.339,1.17-0.521,1.69,0c-0.442,0.521-2.392,0.547-3.12,0.573c0.156,0.73,2.08,0.417,2.678,1.095   c0.078,1.564-0.468,2.607-0.676,4.119c-0.234,1.747,0.78,2.972,1.092,4.589c0.416,2.085-0.026,4.067,0,6.151   c0.026,1.356-0.546,1.278-1.326,2.19c-0.961,1.095,1.222,1.147,1.742,0.521c0.832-0.99,0.442-1.721,0.91-2.789   c0.234-0.47,0.156-1.095,0.234-1.616c0.078-0.601,0.469-1.069,0.521-1.695c0.025,0.548,0.571,0.939,0.415,1.46   c-0.155,0.678-0.415,1.199-0.441,1.877c-0.078,1.539-0.624,2.503-1.118,3.858c-0.364,0.991,1.196,0.548,1.612,0.443   c0.988-0.209,0.285-0.99,0.546-1.694c0.104-0.313,1.222-3.285,1.248-3.285c0.286,0.208,0.182,1.122,0.363,1.434   c0.156,0.365-0.728,0.601-0.936,0.652l-0.363,1.199c1.04-0.313,2.21-0.86,3.301-0.652c-0.935,0.938-1.039,1.669,0.442,1.669   c0.91,0,2.782-1.096,2.964-2.033c0,0,1.741-0.026,1.924-0.052c0.78-0.157,1.118-0.262,1.561-0.939   C30.161,21.634,32.839,18.923,31.539,18.14L31.539,18.14z M16.2,2.421c-1.638,0.026-0.182-1.121,0.313,0H16.2L16.2,2.421z    M18.487,5.679c-0.26-0.573-1.065-3.597-0.39-3.754c-0.364,0.13,0.025,4.197,1.196,4.171C19.06,6.201,18.669,6.096,18.487,5.679   C18.254,5.184,18.669,6.096,18.487,5.679L18.487,5.679z"></path><path fill="currentColor" d="M14.12,9.068c0-0.13-0.026-0.678-0.182-0.913c0.052,0.13-0.078,0.365-0.078,0.365   c-0.702,0.338-0.234-0.574,0-0.443c-0.286-0.235-0.754-0.131-1.014-0.366c-0.286-0.26-0.39-0.495-0.78-0.547   c-0.156-0.026-0.572-0.026-0.624-0.208c-0.078-0.26-0.286-0.547-0.468-0.756c-0.13-0.183-0.13-0.391-0.156-0.626   c-0.026-0.052-0.052-0.547-0.182-0.365c-0.312,0.391-0.338,1.095-0.416,1.564c-0.026,0.156-0.026,0.365-0.104,0.521   c-0.104,0.182-0.416,0.6-0.598,0.391c-0.234-0.234-0.521-0.521-0.832-0.6C8.452,7.061,8.01,7.061,8.036,7.374   c0.104,1.381,0.884,2.659,0.39,4.041c-0.156,0.443-0.494,0.521-0.91,0.625c-0.545,0.157-1.092,0.339-1.586,0.626   c-0.494,0.26-0.988,0.574-1.326,1.017c-0.286,0.365-0.494,0.782-0.702,1.2c-0.416,0.938-0.754,1.903-1.066,2.867   c-0.104,0.339-0.208,0.704-0.312,1.043c-0.026,0.052-0.104,0.442-0.156,0.442c0.078,0,0.13-2.241,0.13-2.397   c0.026-0.626,0.078-1.251,0.104-1.878c0.026-0.495,0.052-1.016,0.234-1.512c0.26-0.704,0.676-1.355,1.118-1.955   c0.26-0.339,0.702-0.756,0.832-1.147c0.052-0.183,0.104-0.625-0.13-0.73C4.474,9.538,4.241,9.668,4.11,9.772   c-0.39,0.339-0.728,0.782-1.04,1.199c-0.416,0.574-0.832,1.174-1.144,1.825c-0.338,0.704-0.442,1.33-0.494,2.086   c-0.078,1.017-0.208,2.033-0.286,3.075c-0.052,0.861-0.156,1.825,0.026,2.686c0.182,0.757,0.546,1.461,0.936,2.086   c0.312,0.495,0.572,0.809,1.04,1.173c0.442,0.34,1.014,0.417,1.56,0.496c0.442,0.052,0.858,0.025,1.3,0.025   c0.754,0,1.508,0.078,2.262-0.13c0.806-0.209,1.742-0.234,2.496-0.6c-0.156-0.235-0.338-0.418-0.312-0.73   c0.026-0.286,0.078-0.548,0.13-0.834c0.104-0.729,0.156-1.486,0.156-2.216c0-0.782-0.234-1.435-0.39-2.164   c-0.13-0.6-0.234-1.199-0.286-1.799c0,0,0.026-0.025,0.052-0.025c0.13,0.625,0.26,1.251,0.416,1.876   c0.183,0.704,0.39,1.305,0.416,2.06c0,0.704-0.078,1.435-0.156,2.164c-0.052,0.234-0.104,0.495-0.13,0.756   c-0.052,0.339,0,0.652,0.312,0.782c0.312,0.104,0.858,0,1.17-0.13c0.208-0.104,0.364-0.157,0.338-0.521   c-0.026-0.183-0.052-0.313-0.104-0.521c-0.052-0.209-0.26-0.365-0.39-0.548c-0.078-0.104-0.052-0.339-0.052-0.469   c0.026-0.313,0.052-0.626,0.104-0.938c0.078-0.6,0.156-1.2,0.312-1.773c0.286-1.173,0.468-2.372,0.676-3.545   c0.078-0.548,0.156-0.991,0.052-1.538s-0.208-1.095-0.39-1.643c-0.078-0.261-0.078-0.625,0.052-0.913   c0.078-0.182,0.364-0.339,0.52-0.469c0.26-0.235,0.494-0.443,0.728-0.704C14.25,9.59,14.12,9.408,14.12,9.068L14.12,9.068   L14.12,9.068z M11.884,8.104c0.208-0.079,0.65,0.365,0.65,0.365c-0.182,0.417-0.52,0.521-0.962,0.443   C11.338,8.886,11.702,8.182,11.884,8.104L11.884,8.104z M13.054,14.726c-0.026-0.053-0.078-0.053-0.156-0.053   C12.976,14.673,13.028,14.673,13.054,14.726L13.054,14.726z"></path></g></svg></g><path fill="#ffb94c" fill-rule="nonzero" d="M0 20.88L0 20.88L0.04 17.76L0.40 1.04Q0.40 0.56 0.92 0.28Q1.44 0 2.24 0L2.24 0Q4.16 0 4.16 1.36L4.16 1.36Q4.16 1.80 3.70 8.08Q3.24 14.36 3.24 15.60L3.24 15.60Q3.24 15.60 3.24 19.84L3.24 19.84Q3.24 22.84 3.64 23.12L3.64 23.12Q4.24 23.32 5.04 23.32L5.04 23.32L10.80 22.92Q12.68 22.92 12.68 24.28L12.68 24.28Q12.68 25.36 11.66 25.86Q10.64 26.36 9.64 26.42Q8.64 26.48 7.20 26.48L7.20 26.48Q0.92 26.48 0.40 26.08L0.40 26.08Q0.12 25.84 0.08 24.26Q0.04 22.68 0.02 22.04Q0 21.40 0 20.88ZM24.16 0.08L24.16 0.08Q25.16 0.08 25.84 0.96Q26.52 1.84 27.60 4.60L27.60 4.60Q30.12 11.12 32.52 25.04L32.52 25.04Q32.56 25.20 32.56 25.50Q32.56 25.80 32.18 26.14Q31.80 26.48 31.10 26.48Q30.40 26.48 29.92 26.14Q29.44 25.80 29.28 25.02Q29.12 24.24 28.68 21.96L28.68 21.96Q27.72 16.88 27.40 16.68L27.40 16.68Q26.92 16.40 24.22 16.08Q21.52 15.76 20.64 15.76Q19.76 15.76 19.60 15.92L19.60 15.92Q18.88 16.56 17.64 25.64L17.64 25.64Q17.48 26.40 16.12 26.40Q14.76 26.40 14.76 25.24L14.76 25.24Q14.76 22.36 16.88 14.24Q19 6.12 20.40 3.48L20.40 3.48Q22.16 0.08 24.16 0.08ZM24 4.52L24 4.52Q23.40 4.52 21.92 8.06Q20.44 11.60 20.44 12.44L20.44 12.44Q20.44 12.64 20.52 12.72L20.52 12.72Q20.84 13.04 23.04 13.28Q25.24 13.52 25.96 13.52Q26.68 13.52 26.76 13.42Q26.84 13.32 26.84 12.78Q26.84 12.24 25.76 8.38Q24.68 4.52 24 4.52Z" transform="translate(12 12) scale(5.902)"></path><path fill="#ffb94c" fill-rule="nonzero" d="M15.28 8.60Q15.68 8.36 16.32 8.36Q16.96 8.36 17.48 8.90Q18 9.44 18 10.16L18 10.16Q18 25.80 18.14 29.06Q18.28 32.32 18.28 32.40L18.28 32.40Q18.28 33.28 17.80 34.06Q17.32 34.84 16.74 34.84Q16.16 34.84 15.86 34.78Q15.56 34.72 15.32 34.64Q15.08 34.56 14.84 34.32L14.84 34.32L14.44 33.92Q14.28 33.76 14.02 33.30Q13.76 32.84 13.60 32.56Q13.44 32.28 13.10 31.58Q12.76 30.88 11.62 28.72Q10.48 26.56 9.56 24.84L9.56 24.84Q6.40 19.04 3.68 15.68L3.68 15.68Q3.68 28.68 2.96 33.72L2.96 33.72Q2.84 34.68 1.48 34.68L1.48 34.68Q0.84 34.68 0.42 34.36Q0 34.04 0 33.32Q0 32.60 0.30 25.40Q0.60 18.20 0.60 16.42Q0.60 14.64 0.60 14.16L0.60 14.16Q0.60 11.28 1.04 10.92Q1.48 10.56 1.96 10.56L1.96 10.56Q4.16 10.56 8.68 17.76L8.68 17.76Q9.56 19.16 12.04 23.62Q14.52 28.08 15 29.12L15 29.12L14.52 12.52Q14.52 9.08 15.28 8.60L15.28 8.60ZM19.56 4.58Q19.56 3.96 21.60 2.36Q23.64 0.76 24.54 0.76Q25.44 0.76 27.40 2.26Q29.36 3.76 29.36 4.68L29.36 4.68Q29.36 5.24 28.88 5.64Q28.40 6.04 28.10 6.04Q27.80 6.04 26.32 4.76Q24.84 3.48 24.48 3.48Q24.12 3.48 22.78 4.80Q21.44 6.12 20.88 6.12Q20.32 6.12 19.94 5.66Q19.56 5.20 19.56 4.58ZM23.62 9.40Q24.24 9.00 25.04 9.00Q25.84 9.00 26.04 9.92L26.04 9.92Q26.08 14.56 26.20 23.80L26.20 23.80Q26.20 29.44 25.88 33.36L25.88 33.36Q25.80 33.96 25.14 34.42Q24.48 34.88 23.80 34.88L23.80 34.88Q22.68 34.88 22.68 33.72L22.68 33.72Q23.08 29.72 23.08 23.80L23.08 23.80L22.84 10.36Q23 9.80 23.62 9.40ZM49.56 8.20L49.56 8.20Q50.52 8.20 50.80 9.60L50.80 9.60Q51 16.12 51 23.82Q51 31.52 50.92 32.72Q50.84 33.92 50.40 34.40Q49.96 34.88 48.80 34.88L48.80 34.88Q47.76 34.88 47.76 33.60L47.76 33.60L47.76 24.56Q47.76 22.36 47.68 20.04Q47.60 17.72 47.60 17.12L47.60 17.12Q46.24 19.44 44 20.94Q41.76 22.44 39 22.44Q36.24 22.44 34.36 20.16L34.36 20.16Q34.28 22.60 34.28 25.94Q34.28 29.28 34.32 32.96L34.32 32.96Q34.32 33.96 33.66 34.42Q33 34.88 32.16 34.88L32.16 34.88Q31.08 34.88 31.08 33.56L31.08 33.56Q31.12 29.96 31.12 22.16L31.12 22.16L31.12 10.80Q31.12 10.12 31.58 9.48Q32.04 8.84 32.66 8.84Q33.28 8.84 33.80 9.18Q34.32 9.52 34.36 10.20L34.36 10.20Q34.52 14.64 35.80 16.80Q37.08 18.96 38.84 18.96Q40.60 18.96 41.86 18.38Q43.12 17.80 43.94 17.04Q44.76 16.28 45.52 14.88L45.52 14.88Q46.60 12.88 47.60 9.96L47.60 9.96Q48.20 8.20 49.56 8.20ZM55.20 26.96L55.04 21.08Q54.48 20.72 54.48 20.04Q54.48 19.36 54.92 18.80L54.92 18.80Q54.76 14.80 54.76 10.36L54.76 10.36Q55 9.40 55.50 8.96Q56 8.52 56.96 8.40L56.96 8.40Q62.24 8.64 68.40 8.64L68.40 8.64Q69.92 8.96 69.92 9.96L69.92 9.96Q69.92 11.64 66.64 11.92L66.64 11.92Q65.76 11.96 64.72 11.96L64.72 11.96L62.12 11.96Q61.36 11.96 57.92 11.64L57.92 11.64Q57.92 16.64 58.08 18.52L58.08 18.52Q60.20 18.56 66.24 18.56L66.24 18.56Q67.68 18.84 67.68 19.86Q67.68 20.88 66.52 21.44L66.52 21.44Q66.40 21.52 66.08 21.60L66.08 21.60L59.16 21.48Q58.52 21.48 58.12 21.56L58.12 21.56L58.28 28.44Q58.28 30.76 58.16 31.76L58.16 31.76L67.44 31.64Q68.72 31.84 68.72 32.72L68.72 32.72Q68.72 33.32 68.18 33.92Q67.64 34.52 66.92 34.68L66.92 34.68L56.68 34.84Q55.76 34.84 55.40 34.50Q55.04 34.16 55.04 33.36L55.04 33.36Q55.20 32.24 55.20 29.76L55.20 29.76L55.20 26.96ZM81.16 8.36L81.16 8.36Q83.76 8.36 85.58 9.24Q87.40 10.12 87.40 11.48L87.40 11.48Q87.40 12.08 87.10 12.52Q86.80 12.96 86.22 12.96Q85.64 12.96 83.72 12.06Q81.80 11.16 80.22 11.16Q78.64 11.16 76.96 12.16Q75.28 13.16 75.28 14.60L75.28 14.60Q75.28 16.56 77.32 17.48L77.32 17.48Q78.84 18.16 81.68 18.70Q84.52 19.24 86.32 20.90Q88.12 22.56 88.12 25.92L88.12 25.92Q88.12 31.04 85.04 33.48L85.04 33.48Q83.32 34.84 80.18 34.84Q77.04 34.84 73.92 33.12L73.92 33.12Q71.88 32.04 71.88 30.96L71.88 30.96Q71.88 30.56 72.22 30.08Q72.56 29.60 73.16 29.28Q73.76 28.96 74.26 29.18Q74.76 29.40 75.88 29.96Q77.00 30.52 77.52 30.72L77.52 30.72Q79.20 31.36 80.68 31.36Q82.16 31.36 83.54 29.90Q84.92 28.44 84.92 26.32L84.92 26.32Q84.92 23.52 82.12 22.40L82.12 22.40Q80.76 21.84 79.04 21.56L79.04 21.56Q75.48 20.92 73.68 19.42Q71.88 17.92 71.88 14.88Q71.88 11.84 74.48 10.10Q77.08 8.36 81.16 8.36ZM92.98 8.24Q92.60 8.64 92.08 8.64Q91.56 8.64 91.16 8.26Q90.76 7.88 90.64 7.20L90.64 7.20L90.96 1.24Q91.16 0 92.32 0L92.32 0Q93.72 0 93.72 2.72L93.72 2.72Q93.72 3.40 93.58 4.48Q93.44 5.56 93.40 7.16L93.40 7.16Q93.36 7.84 92.98 8.24ZM105.80 8.48L105.80 8.48Q106.80 8.48 107.48 9.36Q108.16 10.24 109.24 13.00L109.24 13.00Q111.76 19.52 114.16 33.44L114.16 33.44Q114.20 33.60 114.20 33.90Q114.20 34.20 113.82 34.54Q113.44 34.88 112.74 34.88Q112.04 34.88 111.56 34.54Q111.08 34.20 110.92 33.42Q110.76 32.64 110.32 30.36L110.32 30.36Q109.36 25.28 109.04 25.08L109.04 25.08Q108.56 24.80 105.86 24.48Q103.16 24.16 102.28 24.16Q101.40 24.16 101.24 24.32L101.24 24.32Q100.52 24.96 99.28 34.04L99.28 34.04Q99.12 34.80 97.76 34.80Q96.40 34.80 96.40 33.64L96.40 33.64Q96.40 30.76 98.52 22.64Q100.64 14.52 102.04 11.88L102.04 11.88Q103.80 8.48 105.80 8.48ZM105.64 12.92L105.64 12.92Q105.04 12.92 103.56 16.46Q102.08 20.00 102.08 20.84L102.08 20.84Q102.08 21.04 102.16 21.12L102.16 21.12Q102.48 21.44 104.68 21.68Q106.88 21.92 107.60 21.92Q108.32 21.92 108.40 21.82Q108.48 21.72 108.48 21.18Q108.48 20.64 107.40 16.78Q106.32 12.92 105.64 12.92ZM116.04 29.28L116.04 29.28L116.08 26.16L116.44 9.44Q116.44 8.96 116.96 8.68Q117.48 8.40 118.28 8.40L118.28 8.40Q120.20 8.40 120.20 9.76L120.20 9.76Q120.20 10.20 119.74 16.48Q119.28 22.76 119.28 24.00L119.28 24.00Q119.28 24.00 119.28 28.24L119.28 28.24Q119.28 31.24 119.68 31.52L119.68 31.52Q120.28 31.72 121.08 31.72L121.08 31.72L126.84 31.32Q128.72 31.32 128.72 32.68L128.72 32.68Q128.72 33.76 127.70 34.26Q126.68 34.76 125.68 34.82Q124.68 34.88 123.24 34.88L123.24 34.88Q116.96 34.88 116.44 34.48L116.44 34.48Q116.16 34.24 116.12 32.66Q116.08 31.08 116.06 30.44Q116.04 29.80 116.04 29.28ZM132.20 26.96L132.04 21.08Q131.48 20.72 131.48 20.04Q131.48 19.36 131.92 18.80L131.92 18.80Q131.76 14.80 131.76 10.36L131.76 10.36Q132 9.40 132.50 8.96Q133 8.52 133.96 8.40L133.96 8.40Q139.24 8.64 145.40 8.64L145.40 8.64Q146.92 8.96 146.92 9.96L146.92 9.96Q146.92 11.64 143.64 11.92L143.64 11.92Q142.76 11.96 141.72 11.96L141.72 11.96L139.12 11.96Q138.36 11.96 134.92 11.64L134.92 11.64Q134.92 16.64 135.08 18.52L135.08 18.52Q137.20 18.56 143.24 18.56L143.24 18.56Q144.68 18.84 144.68 19.86Q144.68 20.88 143.52 21.44L143.52 21.44Q143.40 21.52 143.08 21.60L143.08 21.60L136.16 21.48Q135.52 21.48 135.12 21.56L135.12 21.56L135.28 28.44Q135.28 30.76 135.16 31.76L135.16 31.76L144.44 31.64Q145.72 31.84 145.72 32.72L145.72 32.72Q145.72 33.32 145.18 33.92Q144.64 34.52 143.92 34.68L143.92 34.68L133.68 34.84Q132.76 34.84 132.40 34.50Q132.04 34.16 132.04 33.36L132.04 33.36Q132.20 32.24 132.20 29.76L132.20 29.76L132.20 26.96ZM152.28 33.12Q152.28 33.84 151.64 34.42Q151 35 150.26 35Q149.52 35 149.24 34.04L149.24 34.04Q149.12 28.76 149.12 23.52L149.12 23.52L149 13.44Q149 10.40 151.68 9.28L151.68 9.28Q153.84 8.28 156.80 8.28L156.80 8.28Q158.32 8.28 160.06 9.02Q161.80 9.76 163.18 11.18Q164.56 12.60 164.56 14.26Q164.56 15.92 163.04 17.82Q161.52 19.72 159.28 21.18Q157.04 22.64 154.92 23.36L154.92 23.36Q158.64 25.96 161.40 28.94Q164.16 31.92 164.16 33.56L164.16 33.56Q164.16 34.08 163.64 34.54Q163.12 35 162.38 35Q161.64 35 161.12 34.36L161.12 34.36Q160.24 32.24 157.78 29.90Q155.32 27.56 152.04 25.44L152.04 25.44L152.28 33.12ZM152.12 21.12Q154.80 21.00 158.14 18.88Q161.48 16.76 161.48 15.06Q161.48 13.36 159.80 12.44Q158.12 11.52 155.82 11.52Q153.52 11.52 152.16 12.08L152.16 12.08Q152.12 14.12 152.12 21.12L152.12 21.12ZM169.66 9.40Q170.28 9.00 171.08 9.00Q171.88 9.00 172.08 9.92L172.08 9.92Q172.12 14.56 172.24 23.80L172.24 23.80Q172.24 29.44 171.92 33.36L171.92 33.36Q171.84 33.96 171.18 34.42Q170.52 34.88 169.84 34.88L169.84 34.88Q168.72 34.88 168.72 33.72L168.72 33.72Q169.12 29.72 169.12 23.80L169.12 23.80L168.88 10.36Q169.04 9.80 169.66 9.40ZM177.44 26.96L177.28 21.08Q176.72 20.72 176.72 20.04Q176.72 19.36 177.16 18.80L177.16 18.80Q177 14.80 177 10.36L177 10.36Q177.24 9.40 177.74 8.96Q178.24 8.52 179.20 8.40L179.20 8.40Q184.48 8.64 190.64 8.64L190.64 8.64Q192.16 8.96 192.16 9.96L192.16 9.96Q192.16 11.64 188.88 11.92L188.88 11.92Q188 11.96 186.96 11.96L186.96 11.96L184.36 11.96Q183.60 11.96 180.16 11.64L180.16 11.64Q180.16 16.64 180.32 18.52L180.32 18.52Q182.44 18.56 188.48 18.56L188.48 18.56Q189.92 18.84 189.92 19.86Q189.92 20.88 188.76 21.44L188.76 21.44Q188.64 21.52 188.32 21.60L188.32 21.60L181.40 21.48Q180.76 21.48 180.36 21.56L180.36 21.56L180.52 28.44Q180.52 30.76 180.40 31.76L180.40 31.76L189.68 31.64Q190.96 31.84 190.96 32.72L190.96 32.72Q190.96 33.32 190.42 33.92Q189.88 34.52 189.16 34.68L189.16 34.68L178.92 34.84Q178 34.84 177.64 34.50Q177.28 34.16 177.28 33.36L177.28 33.36Q177.44 32.24 177.44 29.76L177.44 29.76L177.44 26.96Z" transform="translate(12 176.278) scale(1)"></path></svg>